<?xml version="1.0" standalone="no"?><!DOCTYPE svg PUBLIC "-//W3C//DTD SVG 1.1//EN" "http://www.w3.org/Graphics/SVG/1.1/DTD/svg11.dtd"><svg t="1528437051349" class="icon" style="" viewBox="0 0 1024 1024" version="1.1" xmlns="http://www.w3.org/2000/svg" p-id="2013" xmlns:xlink="http://www.w3.org/1999/xlink" width="32" height="32"><defs><style type="text/css"></style></defs><path d="M731.8528 499.712l93.02016-93.14304c7.9872-8.02816 7.9872-20.97152-0.02048-28.9792-8.00768-7.96672-20.97152-7.9872-28.9792 0.02048l-93.0816 93.22496-93.0816-93.22496c-8.00768-8.00768-20.97152-7.9872-28.9792-0.02048-8.00768 8.00768-8.00768 20.95104-0.02048 28.9792l93.02016 93.14304-93.02016 93.12256c-7.9872 8.02816-7.9872 20.97152 0.02048 28.9792 3.9936 3.97312 9.23648 5.98016 14.47936 5.98016s10.50624-2.00704 14.49984-6.00064l93.0816-93.20448 93.0816 93.20448c3.9936 3.9936 9.25696 6.00064 14.49984 6.00064s10.48576-2.00704 14.47936-5.98016c8.00768-8.00768 8.00768-20.95104 0.02048-28.9792L731.8528 499.712z" p-id="2014" fill="#ffffff"></path><path d="M463.70816 779.4688c3.11296 0 6.26688-0.7168 9.17504-2.1504 6.92224-3.4816 11.30496-10.56768 11.30496-18.3296l0-491.52c0-7.76192-4.38272-14.848-11.30496-18.3296-6.98368-3.44064-15.23712-2.70336-21.44256 1.92512l-167.936 125.62432L195.97312 376.68864c-11.32544 0-20.48 9.15456-20.48 20.48l0 232.12032c0 11.32544 9.15456 20.48 20.48 20.48l87.51104 0 167.936 125.62432C455.04512 778.07616 459.3664 779.4688 463.70816 779.4688zM443.22816 718.09024l-140.63616-105.20576c-3.54304-2.64192-7.84384-4.07552-12.26752-4.07552l-73.85088 0 0-191.16032 73.85088 0c4.42368 0 8.72448-1.4336 12.26752-4.07552l140.63616-105.20576L443.22816 718.09024z" p-id="2015" fill="#ffffff"></path></svg>